<?xml version="1.0" encoding="UTF-8" standalone="no"?>
<svg width="514px" height="179px" viewBox="0 0 514 179" version="1.1" xmlns="http://www.w3.org/2000/svg" xmlns:xlink="http://www.w3.org/1999/xlink" xmlns:sketch="http://www.bohemiancoding.com/sketch/ns">
    <!-- Generator: Sketch 3.2.1 (9977) - http://www.bohemiancoding.com/sketch -->
    <title>Slice 1</title>
    <desc>Created with Sketch.</desc>
    <defs></defs>
    <g id="Page-1" stroke="none" stroke-width="1" fill="none" fill-rule="evenodd" sketch:type="MSPage">
        <path d="M353,138 C377.852814,138 398,117.852814 398,93 C398,68.1471863 377.852814,48 353,48 C328.147186,48 308,68.1471863 308,93 C308,117.852814 328.147186,138 353,138 Z M353,128 C372.329966,128 388,112.329966 388,93 C388,73.6700338 372.329966,58 353,58 C333.670034,58 318,73.6700338 318,93 C318,112.329966 333.670034,128 353,128 Z" id="Oval-1" fill="#6B78C0" sketch:type="MSShapeGroup"></path>
        <path d="M340.42483,69.3012244 C344.313607,67.1955918 348.767181,66 353.5,66 C368.687831,66 381,78.3121694 381,93.5 C381,108.687831 368.687831,121 353.5,121 C338.312169,121 326,108.687831 326,93.5 C326,90.304696 326.544964,87.2366751 327.547017,84.3838113 C329.115387,85.405993 330.988325,86 333,86 C338.522847,86 343,81.5228475 343,76 C343,73.4232947 342.025447,71.0742084 340.424827,69.3012257 Z" id="Oval-3" fill="#81AFEB" sketch:type="MSShapeGroup"></path>
        <path d="M81.1328125,37.21875 L81.1328125,55.921875 L94.140625,55.921875 L94.140625,70.828125 L81.1328125,70.828125 L81.1328125,108.796875 C81.1328125,111.609389 81.6718696,113.624994 82.75,114.84375 C83.8281304,116.062506 85.8906098,116.671875 88.9375,116.671875 C91.1875113,116.671875 93.1796788,116.507814 94.9140625,116.179688 L94.9140625,131.578125 C90.9296676,132.796881 86.8281461,133.40625 82.609375,133.40625 C68.3593038,133.40625 61.0937514,126.211009 60.8125,111.820312 L60.8125,70.828125 L49.703125,70.828125 L49.703125,55.921875 L60.8125,55.921875 L60.8125,37.21875 L81.1328125,37.21875 Z M148.210938,74.9765625 C145.445299,74.6015606 143.007823,74.4140625 140.898438,74.4140625 C133.210899,74.4140625 128.171887,77.015599 125.78125,82.21875 L125.78125,132 L105.460938,132 L105.460938,55.921875 L124.65625,55.921875 L125.21875,64.9921875 C129.296895,58.0077776 134.945276,54.515625 142.164062,54.515625 C144.414074,54.515625 146.523428,54.8203095 148.492188,55.4296875 L148.210938,74.9765625 Z M191.664062,133.40625 C180.507757,133.40625 171.425816,129.984409 164.417969,123.140625 C157.410121,116.296841 153.90625,107.179744 153.90625,95.7890625 L153.90625,93.8203125 C153.90625,86.1796493 155.382798,79.3476864 158.335938,73.3242188 C161.289077,67.3007511 165.472629,62.6601725 170.886719,59.4023438 C176.300808,56.144515 182.476528,54.515625 189.414062,54.515625 C199.820365,54.515625 208.011689,57.7968422 213.988281,64.359375 C219.964874,70.9219078 222.953125,80.2265023 222.953125,92.2734375 L222.953125,100.570312 L174.507812,100.570312 C175.164066,105.539087 177.144515,109.523423 180.449219,112.523438 C183.753923,115.523452 187.937475,117.023438 193,117.023438 C200.828164,117.023438 206.94529,114.187528 211.351562,108.515625 L221.335938,119.695312 C218.289047,124.007834 214.164089,127.371082 208.960938,129.785156 C203.757786,132.199231 197.992219,133.40625 191.664062,133.40625 L191.664062,133.40625 Z M189.34375,70.96875 C185.31248,70.96875 182.042981,72.3281114 179.535156,75.046875 C177.027331,77.7656386 175.421879,81.6562247 174.71875,86.71875 L202.984375,86.71875 L202.984375,85.1015625 C202.890625,80.60154 201.671887,77.1211061 199.328125,74.6601562 C196.984363,72.1992064 193.656272,70.96875 189.34375,70.96875 L189.34375,70.96875 Z M262.046875,107.179688 L276.179688,55.921875 L297.414062,55.921875 L271.75,132 L252.34375,132 L226.679688,55.921875 L247.914062,55.921875 L262.046875,107.179688 Z M456.671875,74.9765625 C453.906236,74.6015606 451.468761,74.4140625 449.359375,74.4140625 C441.671837,74.4140625 436.632824,77.015599 434.242188,82.21875 L434.242188,132 L413.921875,132 L413.921875,55.921875 L433.117188,55.921875 L433.679688,64.9921875 C437.757833,58.0077776 443.406214,54.515625 450.625,54.515625 C452.875011,54.515625 454.984365,54.8203095 456.953125,55.4296875 L456.671875,74.9765625 Z" id="trev---r" fill="#6B78C0" sketch:type="MSShapeGroup"></path>
    </g>
</svg>